<svg width="92" height="54" viewBox="0 0 92 54" fill="none" xmlns="http://www.w3.org/2000/svg">
<path d="M48.512 17.3093C48.512 18.124 48.4306 18.9313 48.2676 19.7312C48.1047 20.5311 47.8306 21.2495 47.4455 21.8865C47.0603 22.5086 46.5419 23.0123 45.8901 23.3974C45.2532 23.7826 44.4533 23.9751 43.4904 23.9751C42.5424 23.9751 41.7499 23.79 41.1129 23.4196C40.476 23.0345 39.9649 22.5309 39.5798 21.9087C39.2094 21.2866 38.9428 20.583 38.7799 19.7979C38.6317 19.0128 38.5577 18.2129 38.5577 17.3982C38.5577 16.5094 38.6614 15.628 38.8687 14.754C38.9132 14.517 38.9947 14.1911 39.1132 13.7764C39.2465 13.3468 39.4094 12.932 39.602 12.5321C39.8094 12.1173 40.039 11.7618 40.2908 11.4655C40.5574 11.1693 40.8463 11.0211 41.1574 11.0211C41.4536 11.0211 41.6906 11.1026 41.8684 11.2656C42.0461 11.4285 42.1869 11.6359 42.2906 11.8877C42.3942 12.1247 42.4609 12.3839 42.4905 12.6654C42.5202 12.932 42.535 13.1764 42.535 13.3986C42.535 13.7393 42.5053 14.0726 42.4461 14.3985C42.4017 14.7244 42.3498 15.0503 42.2906 15.3762C42.2313 15.8206 42.1721 16.265 42.1128 16.7093C42.0684 17.1537 42.0461 17.5981 42.0461 18.0425C42.0461 18.2647 42.0535 18.5165 42.0684 18.798C42.098 19.0646 42.1572 19.3238 42.2461 19.5757C42.335 19.8275 42.4609 20.0423 42.6238 20.22C42.7868 20.383 43.0164 20.4644 43.3127 20.4644C43.6978 20.4644 44.0015 20.3608 44.2237 20.1534C44.4607 19.946 44.631 19.6868 44.7347 19.3757C44.8532 19.0646 44.9273 18.7313 44.9569 18.3758C44.9865 18.0203 45.0013 17.6944 45.0013 17.3982C45.0013 16.7464 44.9569 16.1094 44.868 15.4873C44.7791 14.8503 44.6977 14.2059 44.6236 13.5542C44.6088 13.4801 44.6014 13.3764 44.6014 13.2431C44.6014 13.0209 44.6384 12.7987 44.7125 12.5765C44.7865 12.3543 44.8902 12.1543 45.0236 11.9766C45.1569 11.7988 45.3198 11.6581 45.5124 11.5544C45.705 11.4359 45.9197 11.3767 46.1568 11.3767C46.4826 11.3767 46.7715 11.4952 47.0233 11.7322C47.2751 11.9544 47.4825 12.2506 47.6455 12.621C47.8232 12.9765 47.9639 13.3838 48.0676 13.843C48.1861 14.2874 48.275 14.7318 48.3343 15.1762C48.4083 15.6058 48.4528 16.0131 48.4676 16.3983C48.4972 16.7834 48.512 17.0871 48.512 17.3093ZM63.3547 16.3316C63.3547 16.6131 63.3547 16.9982 63.3547 17.487C63.3547 17.961 63.3399 18.4795 63.3102 19.0424C63.2954 19.6053 63.251 20.1756 63.1769 20.7533C63.1029 21.3162 62.9844 21.8272 62.8214 22.2865C62.6733 22.7457 62.4807 23.1234 62.2437 23.4196C62.0067 23.7159 61.703 23.864 61.3327 23.864C61.0068 23.864 60.755 23.7307 60.5772 23.4641C60.4143 23.1826 60.2958 22.8568 60.2217 22.4864C60.1477 22.1161 60.1032 21.7384 60.0884 21.3532C60.0884 20.9681 60.0884 20.6644 60.0884 20.4422C60.0884 19.7756 60.1106 19.1239 60.1551 18.4869C60.1995 17.8499 60.2217 17.1982 60.2217 16.5316C60.2217 16.4575 60.2217 16.3242 60.2217 16.1316C60.2217 15.9391 60.2069 15.7465 60.1773 15.5539C60.1477 15.3614 60.0958 15.191 60.0217 15.0429C59.9625 14.8948 59.8662 14.8207 59.7329 14.8207C59.4663 14.8207 59.2515 14.9614 59.0885 15.2429C58.9256 15.5095 58.7923 15.828 58.6886 16.1983C58.5849 16.5686 58.5108 16.9389 58.4664 17.3093C58.4219 17.6648 58.3923 17.9314 58.3775 18.1092C58.3479 18.3017 58.3182 18.5906 58.2886 18.9757C58.2738 19.3609 58.2442 19.783 58.1997 20.2423C58.1701 20.7015 58.1109 21.1755 58.022 21.6643C57.9479 22.1383 57.8442 22.5753 57.7109 22.9753C57.5924 23.3604 57.4369 23.6789 57.2443 23.9307C57.0517 24.1825 56.8147 24.3084 56.5333 24.3084C56.1778 24.3084 55.9037 24.1529 55.7112 23.8418C55.5186 23.5307 55.3779 23.1678 55.289 22.7531C55.2001 22.3383 55.1409 21.9161 55.1112 21.4865C55.0964 21.057 55.089 20.7237 55.089 20.4867C55.089 20.2348 55.089 19.9904 55.089 19.7534C55.1038 19.5164 55.1112 19.272 55.1112 19.0202C55.1112 18.9165 55.1112 18.7461 55.1112 18.5091C55.1112 18.2721 55.1038 18.0129 55.089 17.7314C55.089 17.4352 55.0742 17.1315 55.0446 16.8204C55.0298 16.5094 55.0001 16.2279 54.9557 15.9761C54.9113 15.7095 54.8446 15.4947 54.7557 15.3317C54.6668 15.1688 54.5631 15.0873 54.4446 15.0873C54.2521 15.0873 54.0743 15.2132 53.9114 15.4651C53.7484 15.7021 53.6077 15.9909 53.4892 16.3316C53.3707 16.6575 53.2744 16.9834 53.2003 17.3093C53.1411 17.6352 53.1115 17.8722 53.1115 18.0203V18.1536C53.1115 18.8646 53.1559 19.5609 53.2448 20.2423C53.3337 20.9237 53.3781 21.6199 53.3781 22.3309C53.3781 22.7457 53.2448 23.1308 52.9782 23.4863C52.7115 23.827 52.3412 23.9974 51.8672 23.9974C51.5265 23.9974 51.245 23.8714 51.0228 23.6196C50.8006 23.353 50.6155 23.0123 50.4673 22.5975C50.3192 22.1828 50.2007 21.731 50.1118 21.2421C50.0378 20.7385 49.9859 20.2497 49.9563 19.7756C49.9267 19.2868 49.9045 18.8498 49.8896 18.4647C49.8896 18.0647 49.8896 17.7685 49.8896 17.5759C49.8896 17.3537 49.8822 17.0278 49.8674 16.5982C49.8674 16.1687 49.8748 15.7021 49.8896 15.1984C49.9193 14.6948 49.9637 14.1837 50.023 13.6653C50.0822 13.132 50.1785 12.6506 50.3118 12.221C50.4451 11.7914 50.6155 11.4433 50.8229 11.1767C51.0451 10.8952 51.3265 10.7545 51.6672 10.7545C52.0523 10.7545 52.3634 10.8582 52.6004 11.0656C52.8522 11.273 52.9782 11.584 52.9782 11.9988C52.9782 12.0877 52.9707 12.1766 52.9559 12.2654C52.9559 12.3543 52.9485 12.4358 52.9337 12.5099C53.0967 12.2728 53.2966 12.0358 53.5336 11.7988C53.7706 11.547 54.0225 11.3248 54.2891 11.1322C54.5706 10.9249 54.8668 10.7619 55.1779 10.6434C55.489 10.5101 55.8 10.4434 56.1111 10.4434C56.4074 10.4434 56.674 10.5249 56.911 10.6879C57.148 10.8508 57.3554 11.0582 57.5332 11.31C57.7109 11.547 57.859 11.8062 57.9775 12.0877C58.0961 12.3691 58.1775 12.6358 58.222 12.8876C58.3701 12.621 58.5479 12.3543 58.7552 12.0877C58.9774 11.8062 59.2144 11.5618 59.4663 11.3544C59.7181 11.1471 59.9921 10.9767 60.2884 10.8434C60.5995 10.7101 60.9179 10.6434 61.2438 10.6434C61.5549 10.6434 61.8215 10.7545 62.0437 10.9767C62.2659 11.1989 62.4585 11.4878 62.6214 11.8433C62.7844 12.184 62.9103 12.5765 62.9992 13.0209C63.088 13.4505 63.1621 13.8801 63.2214 14.3096C63.2806 14.7244 63.3176 15.1169 63.3325 15.4873C63.3473 15.8428 63.3547 16.1242 63.3547 16.3316ZM78.3084 16.3316C78.3084 16.6131 78.3084 16.9982 78.3084 17.487C78.3084 17.961 78.2936 18.4795 78.264 19.0424C78.2492 19.6053 78.2047 20.1756 78.1307 20.7533C78.0566 21.3162 77.9381 21.8272 77.7752 22.2865C77.627 22.7457 77.4345 23.1234 77.1975 23.4196C76.9604 23.7159 76.6568 23.864 76.2864 23.864C75.9606 23.864 75.7087 23.7307 75.531 23.4641C75.368 23.1826 75.2495 22.8568 75.1755 22.4864C75.1014 22.1161 75.057 21.7384 75.0422 21.3532C75.0422 20.9681 75.0422 20.6644 75.0422 20.4422C75.0422 19.7756 75.0644 19.1239 75.1088 18.4869C75.1533 17.8499 75.1755 17.1982 75.1755 16.5316C75.1755 16.4575 75.1755 16.3242 75.1755 16.1316C75.1755 15.9391 75.1607 15.7465 75.131 15.5539C75.1014 15.3614 75.0496 15.191 74.9755 15.0429C74.9162 14.8948 74.82 14.8207 74.6866 14.8207C74.42 14.8207 74.2052 14.9614 74.0423 15.2429C73.8793 15.5095 73.746 15.828 73.6423 16.1983C73.5386 16.5686 73.4646 16.9389 73.4201 17.3093C73.3757 17.6648 73.3461 17.9314 73.3313 18.1092C73.3016 18.3017 73.272 18.5906 73.2424 18.9757C73.2276 19.3609 73.1979 19.783 73.1535 20.2423C73.1239 20.7015 73.0646 21.1755 72.9757 21.6643C72.9017 22.1383 72.798 22.5753 72.6647 22.9753C72.5462 23.3604 72.3906 23.6789 72.1981 23.9307C72.0055 24.1825 71.7685 24.3084 71.487 24.3084C71.1315 24.3084 70.8575 24.1529 70.6649 23.8418C70.4723 23.5307 70.3316 23.1678 70.2427 22.7531C70.1539 22.3383 70.0946 21.9161 70.065 21.4865C70.0502 21.057 70.0428 20.7237 70.0428 20.4867C70.0428 20.2348 70.0428 19.9904 70.0428 19.7534C70.0576 19.5164 70.065 19.272 70.065 19.0202C70.065 18.9165 70.065 18.7461 70.065 18.5091C70.065 18.2721 70.0576 18.0129 70.0428 17.7314C70.0428 17.4352 70.0279 17.1315 69.9983 16.8204C69.9835 16.5094 69.9539 16.2279 69.9094 15.9761C69.865 15.7095 69.7983 15.4947 69.7095 15.3317C69.6206 15.1688 69.5169 15.0873 69.3984 15.0873C69.2058 15.0873 69.0281 15.2132 68.8651 15.4651C68.7022 15.7021 68.5615 15.9909 68.443 16.3316C68.3244 16.6575 68.2282 16.9834 68.1541 17.3093C68.0948 17.6352 68.0652 17.8722 68.0652 18.0203V18.1536C68.0652 18.8646 68.1097 19.5609 68.1985 20.2423C68.2874 20.9237 68.3319 21.6199 68.3319 22.3309C68.3319 22.7457 68.1985 23.1308 67.9319 23.4863C67.6653 23.827 67.2949 23.9974 66.8209 23.9974C66.4802 23.9974 66.1988 23.8714 65.9766 23.6196C65.7544 23.353 65.5692 23.0123 65.4211 22.5975C65.273 22.1828 65.1545 21.731 65.0656 21.2421C64.9915 20.7385 64.9397 20.2497 64.91 19.7756C64.8804 19.2868 64.8582 18.8498 64.8434 18.4647C64.8434 18.0647 64.8434 17.7685 64.8434 17.5759C64.8434 17.3537 64.836 17.0278 64.8212 16.5982C64.8212 16.1687 64.8286 15.7021 64.8434 15.1984C64.873 14.6948 64.9175 14.1837 64.9767 13.6653C65.036 13.132 65.1322 12.6506 65.2656 12.221C65.3989 11.7914 65.5692 11.4433 65.7766 11.1767C65.9988 10.8952 66.2803 10.7545 66.6209 10.7545C67.0061 10.7545 67.3172 10.8582 67.5542 11.0656C67.806 11.273 67.9319 11.584 67.9319 11.9988C67.9319 12.0877 67.9245 12.1766 67.9097 12.2654C67.9097 12.3543 67.9023 12.4358 67.8875 12.5099C68.0504 12.2728 68.2504 12.0358 68.4874 11.7988C68.7244 11.547 68.9762 11.3248 69.2429 11.1322C69.5243 10.9249 69.8206 10.7619 70.1316 10.6434C70.4427 10.5101 70.7538 10.4434 71.0649 10.4434C71.3611 10.4434 71.6278 10.5249 71.8648 10.6879C72.1018 10.8508 72.3092 11.0582 72.4869 11.31C72.6647 11.547 72.8128 11.8062 72.9313 12.0877C73.0498 12.3691 73.1313 12.6358 73.1757 12.8876C73.3238 12.621 73.5016 12.3543 73.709 12.0877C73.9312 11.8062 74.1682 11.5618 74.42 11.3544C74.6718 11.1471 74.9459 10.9767 75.2421 10.8434C75.5532 10.7101 75.8717 10.6434 76.1976 10.6434C76.5086 10.6434 76.7753 10.7545 76.9975 10.9767C77.2197 11.1989 77.4122 11.4878 77.5752 11.8433C77.7381 12.184 77.864 12.5765 77.9529 13.0209C78.0418 13.4505 78.1159 13.8801 78.1751 14.3096C78.2344 14.7244 78.2714 15.1169 78.2862 15.4873C78.301 15.8428 78.3084 16.1242 78.3084 16.3316ZM84.5966 30.1299C84.241 30.1299 83.8337 30.0707 83.3745 29.9522C82.9301 29.8485 82.5079 29.693 82.108 29.4856C81.708 29.2782 81.3673 29.0264 81.0859 28.7301C80.8192 28.4339 80.6859 28.0932 80.6859 27.708C80.6859 27.5599 80.7229 27.4118 80.797 27.2636C80.8711 27.1155 80.9674 26.9822 81.0859 26.8637C81.2192 26.76 81.3599 26.6711 81.508 26.597C81.6562 26.5378 81.8117 26.5082 81.9747 26.5082C82.1524 26.5082 82.3228 26.5304 82.4857 26.5748C82.6635 26.6341 82.8412 26.7007 83.019 26.7748C83.2115 26.8489 83.3967 26.9155 83.5745 26.9748C83.767 27.034 83.967 27.0637 84.1744 27.0637C84.5447 27.0637 84.8632 26.9377 85.1298 26.6859C85.4113 26.4341 85.6483 26.1008 85.8408 25.686C86.0334 25.2861 86.189 24.8343 86.3075 24.3306C86.426 23.8418 86.5148 23.353 86.5741 22.8642C86.6482 22.3753 86.7 21.9161 86.7296 21.4865C86.7593 21.057 86.7815 20.7089 86.7963 20.4422C86.2778 21.2273 85.7594 21.8347 85.2409 22.2642C84.7373 22.679 84.1151 22.8864 83.3745 22.8864C82.8116 22.8864 82.3153 22.7679 81.8858 22.5309C81.471 22.2939 81.1155 21.9828 80.8192 21.5976C80.523 21.2125 80.2786 20.7755 80.086 20.2867C79.8934 19.783 79.7453 19.2646 79.6416 18.7313C79.5527 18.1981 79.4935 17.6796 79.4638 17.176C79.4342 16.6575 79.4342 16.1835 79.4638 15.7539C79.4787 15.428 79.5157 15.0058 79.5749 14.4874C79.649 13.9541 79.7601 13.4357 79.9082 12.932C80.0564 12.4284 80.2637 12.0062 80.5304 11.6655C80.797 11.31 81.1451 11.1471 81.5747 11.1767C81.8561 11.1915 82.0857 11.3174 82.2635 11.5544C82.4413 11.7766 82.582 12.0581 82.6857 12.3988C82.8042 12.7395 82.8857 13.1172 82.9301 13.532C82.9893 13.9319 83.0264 14.3319 83.0412 14.7318C83.056 15.1318 83.056 15.5021 83.0412 15.8428C83.0412 16.1687 83.0412 16.4205 83.0412 16.5982C83.0412 16.8501 83.0486 17.1019 83.0634 17.3537C83.0782 17.6055 83.1301 17.8351 83.2189 18.0425C83.3078 18.2351 83.4411 18.3906 83.6189 18.5091C83.8115 18.6276 84.0781 18.6869 84.4188 18.6869C84.8039 18.6869 85.1076 18.5906 85.3298 18.398C85.5668 18.2055 85.7372 17.9685 85.8408 17.687C85.9594 17.3907 86.0334 17.0797 86.063 16.7538C86.0927 16.4131 86.1075 16.0946 86.1075 15.7983C86.1075 15.591 86.1075 15.3391 86.1075 15.0429C86.1075 14.7466 86.1075 14.4355 86.1075 14.1097C86.1223 13.7838 86.1519 13.4653 86.1964 13.1542C86.2556 12.8283 86.3371 12.5395 86.4408 12.2877C86.5593 12.021 86.7074 11.8062 86.8852 11.6433C87.0777 11.4803 87.3222 11.3989 87.6184 11.3989C87.9887 11.3989 88.3072 11.547 88.5739 11.8433C88.8405 12.1247 89.0627 12.5024 89.2404 12.9765C89.433 13.4357 89.5811 13.9467 89.6848 14.5096C89.8033 15.0725 89.8922 15.6354 89.9515 16.1983C90.0107 16.7464 90.0477 17.2574 90.0626 17.7314C90.0922 18.1906 90.107 18.5536 90.107 18.8202C90.107 19.4424 90.0848 20.1534 90.0403 20.9533C89.9959 21.7384 89.907 22.5531 89.7737 23.3974C89.6552 24.227 89.47 25.0417 89.2182 25.8416C88.9664 26.6563 88.6331 27.3821 88.2183 28.0191C87.8184 28.6561 87.3222 29.1671 86.7296 29.5522C86.1371 29.9374 85.4261 30.1299 84.5966 30.1299Z" fill="#FE9200"/>
<path d="M34.4027 40.2897C34.4027 41.1045 34.3212 41.9118 34.1582 42.7117C33.9953 43.5116 33.7213 44.23 33.3361 44.867C32.951 45.4891 32.4325 45.9928 31.7807 46.3779C31.1438 46.763 30.3439 46.9556 29.381 46.9556C28.433 46.9556 27.6405 46.7704 27.0035 46.4001C26.3666 46.015 25.8555 45.5113 25.4704 44.8892C25.1001 44.267 24.8334 43.5634 24.6705 42.7783C24.5224 41.9932 24.4483 41.1933 24.4483 40.3786C24.4483 39.4898 24.552 38.6085 24.7594 37.7345C24.8038 37.4975 24.8853 37.1716 25.0038 36.7568C25.1371 36.3273 25.3 35.9125 25.4926 35.5125C25.7 35.0978 25.9296 34.7423 26.1814 34.446C26.4481 34.1497 26.7369 34.0016 27.048 34.0016C27.3442 34.0016 27.5813 34.0831 27.759 34.246C27.9368 34.409 28.0775 34.6164 28.1812 34.8682C28.2849 35.1052 28.3515 35.3644 28.3812 35.6459C28.4108 35.9125 28.4256 36.1569 28.4256 36.3791C28.4256 36.7198 28.396 37.0531 28.3367 37.379C28.2923 37.7049 28.2404 38.0308 28.1812 38.3566C28.1219 38.801 28.0627 39.2454 28.0034 39.6898C27.959 40.1342 27.9368 40.5786 27.9368 41.023C27.9368 41.2452 27.9442 41.497 27.959 41.7785C27.9886 42.0451 28.0479 42.3043 28.1367 42.5561C28.2256 42.808 28.3515 43.0227 28.5145 43.2005C28.6774 43.3634 28.907 43.4449 29.2033 43.4449C29.5884 43.4449 29.8921 43.3412 30.1143 43.1338C30.3513 42.9265 30.5216 42.6672 30.6253 42.3562C30.7438 42.0451 30.8179 41.7118 30.8475 41.3563C30.8772 41.0008 30.892 40.6749 30.892 40.3786C30.892 39.7268 30.8475 39.0899 30.7586 38.4677C30.6698 37.8308 30.5883 37.1864 30.5142 36.5346C30.4994 36.4606 30.492 36.3569 30.492 36.2236C30.492 36.0014 30.529 35.7792 30.6031 35.557C30.6772 35.3348 30.7809 35.1348 30.9142 34.9571C31.0475 34.7793 31.2104 34.6386 31.403 34.5349C31.5956 34.4164 31.8104 34.3571 32.0474 34.3571C32.3733 34.3571 32.6621 34.4756 32.9139 34.7126C33.1658 34.9348 33.3731 35.2311 33.5361 35.6014C33.7138 35.9569 33.8546 36.3643 33.9583 36.8235C34.0768 37.2679 34.1656 37.7123 34.2249 38.1567C34.299 38.5862 34.3434 38.9936 34.3582 39.3787C34.3878 39.7639 34.4027 40.0675 34.4027 40.2897ZM49.2453 39.3121C49.2453 39.5935 49.2453 39.9787 49.2453 40.4675C49.2453 40.9415 49.2305 41.46 49.2009 42.0229C49.1861 42.5858 49.1416 43.1561 49.0675 43.7338C48.9935 44.2967 48.875 44.8077 48.712 45.2669C48.5639 45.7261 48.3713 46.1039 48.1343 46.4001C47.8973 46.6964 47.5937 46.8445 47.2233 46.8445C46.8974 46.8445 46.6456 46.7112 46.4679 46.4446C46.3049 46.1631 46.1864 45.8372 46.1123 45.4669C46.0383 45.0966 45.9938 44.7188 45.979 44.3337C45.979 43.9486 45.979 43.6449 45.979 43.4227C45.979 42.7561 46.0012 42.1043 46.0457 41.4674C46.0901 40.8304 46.1123 40.1786 46.1123 39.5121C46.1123 39.438 46.1123 39.3047 46.1123 39.1121C46.1123 38.9195 46.0975 38.727 46.0679 38.5344C46.0383 38.3418 45.9864 38.1715 45.9124 38.0234C45.8531 37.8752 45.7568 37.8012 45.6235 37.8012C45.3569 37.8012 45.1421 37.9419 44.9792 38.2233C44.8162 38.49 44.6829 38.8084 44.5792 39.1788C44.4755 39.5491 44.4014 39.9194 44.357 40.2897C44.3126 40.6453 44.2829 40.9119 44.2681 41.0896C44.2385 41.2822 44.2089 41.5711 44.1792 41.9562C44.1644 42.3413 44.1348 42.7635 44.0904 43.2227C44.0607 43.6819 44.0015 44.1559 43.9126 44.6448C43.8385 45.1188 43.7349 45.5558 43.6015 45.9557C43.483 46.3409 43.3275 46.6593 43.1349 46.9112C42.9424 47.163 42.7054 47.2889 42.4239 47.2889C42.0684 47.2889 41.7944 47.1334 41.6018 46.8223C41.4092 46.5112 41.2685 46.1483 41.1796 45.7335C41.0907 45.3188 41.0315 44.8966 41.0019 44.467C40.987 44.0374 40.9796 43.7041 40.9796 43.4671C40.9796 43.2153 40.9796 42.9709 40.9796 42.7339C40.9944 42.4969 41.0019 42.2525 41.0019 42.0006C41.0019 41.897 41.0019 41.7266 41.0019 41.4896C41.0019 41.2526 40.9944 40.9934 40.9796 40.7119C40.9796 40.4157 40.9648 40.112 40.9352 39.8009C40.9204 39.4898 40.8908 39.2084 40.8463 38.9566C40.8019 38.6899 40.7352 38.4751 40.6463 38.3122C40.5575 38.1493 40.4538 38.0678 40.3353 38.0678C40.1427 38.0678 39.9649 38.1937 39.802 38.4455C39.6391 38.6825 39.4983 38.9714 39.3798 39.3121C39.2613 39.638 39.165 39.9639 39.091 40.2897C39.0317 40.6156 39.0021 40.8526 39.0021 41.0008V41.1341C39.0021 41.8451 39.0465 42.5413 39.1354 43.2227C39.2243 43.9041 39.2687 44.6003 39.2687 45.3114C39.2687 45.7261 39.1354 46.1113 38.8688 46.4668C38.6021 46.8075 38.2318 46.9778 37.7578 46.9778C37.4171 46.9778 37.1357 46.8519 36.9135 46.6001C36.6913 46.3335 36.5061 45.9928 36.358 45.578C36.2098 45.1632 36.0913 44.7114 36.0025 44.2226C35.9284 43.719 35.8765 43.2301 35.8469 42.7561C35.8173 42.2673 35.7951 41.8303 35.7803 41.4452C35.7803 41.0452 35.7803 40.7489 35.7803 40.5564C35.7803 40.3342 35.7729 40.0083 35.758 39.5787C35.758 39.1491 35.7654 38.6825 35.7803 38.1789C35.8099 37.6752 35.8543 37.1642 35.9136 36.6457C35.9728 36.1125 36.0691 35.631 36.2024 35.2015C36.3358 34.7719 36.5061 34.4238 36.7135 34.1572C36.9357 33.8757 37.2171 33.735 37.5578 33.735C37.943 33.735 38.254 33.8387 38.491 34.0461C38.7429 34.2534 38.8688 34.5645 38.8688 34.9793C38.8688 35.0682 38.8614 35.157 38.8466 35.2459C38.8466 35.3348 38.8392 35.4163 38.8243 35.4903C38.9873 35.2533 39.1873 35.0163 39.4243 34.7793C39.6613 34.5275 39.9131 34.3053 40.1797 34.1127C40.4612 33.9053 40.7574 33.7424 41.0685 33.6239C41.3796 33.4906 41.6907 33.4239 42.0017 33.4239C42.298 33.4239 42.5646 33.5054 42.8016 33.6683C43.0386 33.8313 43.246 34.0386 43.4238 34.2905C43.6015 34.5275 43.7497 34.7867 43.8682 35.0682C43.9867 35.3496 44.0682 35.6162 44.1126 35.8681C44.2607 35.6014 44.4385 35.3348 44.6459 35.0682C44.8681 34.7867 45.1051 34.5423 45.3569 34.3349C45.6087 34.1275 45.8827 33.9572 46.179 33.8239C46.4901 33.6905 46.8086 33.6239 47.1344 33.6239C47.4455 33.6239 47.7122 33.735 47.9343 33.9572C48.1565 34.1794 48.3491 34.4682 48.5121 34.8237C48.675 35.1644 48.8009 35.557 48.8898 36.0014C48.9787 36.4309 49.0527 36.8605 49.112 37.2901C49.1712 37.7049 49.2083 38.0974 49.2231 38.4677C49.2379 38.8233 49.2453 39.1047 49.2453 39.3121ZM64.1991 39.3121C64.1991 39.5935 64.1991 39.9787 64.1991 40.4675C64.1991 40.9415 64.1842 41.46 64.1546 42.0229C64.1398 42.5858 64.0954 43.1561 64.0213 43.7338C63.9472 44.2967 63.8287 44.8077 63.6658 45.2669C63.5177 45.7261 63.3251 46.1039 63.0881 46.4001C62.8511 46.6964 62.5474 46.8445 62.1771 46.8445C61.8512 46.8445 61.5994 46.7112 61.4216 46.4446C61.2587 46.1631 61.1402 45.8372 61.0661 45.4669C60.992 45.0966 60.9476 44.7188 60.9328 44.3337C60.9328 43.9486 60.9328 43.6449 60.9328 43.4227C60.9328 42.7561 60.955 42.1043 60.9994 41.4674C61.0439 40.8304 61.0661 40.1786 61.0661 39.5121C61.0661 39.438 61.0661 39.3047 61.0661 39.1121C61.0661 38.9195 61.0513 38.727 61.0217 38.5344C60.992 38.3418 60.9402 38.1715 60.8661 38.0234C60.8069 37.8752 60.7106 37.8012 60.5773 37.8012C60.3106 37.8012 60.0958 37.9419 59.9329 38.2233C59.77 38.49 59.6366 38.8084 59.5329 39.1788C59.4293 39.5491 59.3552 39.9194 59.3108 40.2897C59.2663 40.6453 59.2367 40.9119 59.2219 41.0896C59.1922 41.2822 59.1626 41.5711 59.133 41.9562C59.1182 42.3413 59.0886 42.7635 59.0441 43.2227C59.0145 43.6819 58.9552 44.1559 58.8664 44.6448C58.7923 45.1188 58.6886 45.5558 58.5553 45.9557C58.4368 46.3409 58.2812 46.6593 58.0887 46.9112C57.8961 47.163 57.6591 47.2889 57.3777 47.2889C57.0221 47.2889 56.7481 47.1334 56.5555 46.8223C56.363 46.5112 56.2222 46.1483 56.1334 45.7335C56.0445 45.3188 55.9852 44.8966 55.9556 44.467C55.9408 44.0374 55.9334 43.7041 55.9334 43.4671C55.9334 43.2153 55.9334 42.9709 55.9334 42.7339C55.9482 42.4969 55.9556 42.2525 55.9556 42.0006C55.9556 41.897 55.9556 41.7266 55.9556 41.4896C55.9556 41.2526 55.9482 40.9934 55.9334 40.7119C55.9334 40.4157 55.9186 40.112 55.8889 39.8009C55.8741 39.4898 55.8445 39.2084 55.8001 38.9566C55.7556 38.6899 55.689 38.4751 55.6001 38.3122C55.5112 38.1493 55.4075 38.0678 55.289 38.0678C55.0964 38.0678 54.9187 38.1937 54.7557 38.4455C54.5928 38.6825 54.4521 38.9714 54.3336 39.3121C54.2151 39.638 54.1188 39.9639 54.0447 40.2897C53.9855 40.6156 53.9558 40.8526 53.9558 41.0008V41.1341C53.9558 41.8451 54.0003 42.5413 54.0892 43.2227C54.178 43.9041 54.2225 44.6003 54.2225 45.3114C54.2225 45.7261 54.0892 46.1113 53.8225 46.4668C53.5559 46.8075 53.1856 46.9778 52.7116 46.9778C52.3709 46.9778 52.0894 46.8519 51.8672 46.6001C51.645 46.3335 51.4599 45.9928 51.3117 45.578C51.1636 45.1632 51.0451 44.7114 50.9562 44.2226C50.8821 43.719 50.8303 43.2301 50.8007 42.7561C50.771 42.2673 50.7488 41.8303 50.734 41.4452C50.734 41.0452 50.734 40.7489 50.734 40.5564C50.734 40.3342 50.7266 40.0083 50.7118 39.5787C50.7118 39.1491 50.7192 38.6825 50.734 38.1789C50.7636 37.6752 50.8081 37.1642 50.8673 36.6457C50.9266 36.1125 51.0229 35.631 51.1562 35.2015C51.2895 34.7719 51.4599 34.4238 51.6672 34.1572C51.8894 33.8757 52.1709 33.735 52.5116 33.735C52.8967 33.735 53.2078 33.8387 53.4448 34.0461C53.6966 34.2534 53.8225 34.5645 53.8225 34.9793C53.8225 35.0682 53.8151 35.157 53.8003 35.2459C53.8003 35.3348 53.7929 35.4163 53.7781 35.4903C53.941 35.2533 54.141 35.0163 54.378 34.7793C54.615 34.5275 54.8668 34.3053 55.1335 34.1127C55.4149 33.9053 55.7112 33.7424 56.0223 33.6239C56.3333 33.4906 56.6444 33.4239 56.9555 33.4239C57.2517 33.4239 57.5184 33.5054 57.7554 33.6683C57.9924 33.8313 58.1998 34.0386 58.3775 34.2905C58.5553 34.5275 58.7034 34.7867 58.8219 35.0682C58.9404 35.3496 59.0219 35.6162 59.0663 35.8681C59.2145 35.6014 59.3922 35.3348 59.5996 35.0682C59.8218 34.7867 60.0588 34.5423 60.3106 34.3349C60.5625 34.1275 60.8365 33.9572 61.1328 33.8239C61.4438 33.6905 61.7623 33.6239 62.0882 33.6239C62.3993 33.6239 62.6659 33.735 62.8881 33.9572C63.1103 34.1794 63.3029 34.4682 63.4658 34.8237C63.6288 35.1644 63.7547 35.557 63.8435 36.0014C63.9324 36.4309 64.0065 36.8605 64.0657 37.2901C64.125 37.7049 64.162 38.0974 64.1768 38.4677C64.1916 38.8233 64.1991 39.1047 64.1991 39.3121ZM70.4872 53.1104C70.1317 53.1104 69.7243 53.0512 69.2651 52.9327C68.8207 52.829 68.3985 52.6734 67.9986 52.4661C67.5986 52.2587 67.2579 52.0068 66.9765 51.7106C66.7099 51.4143 66.5765 51.0736 66.5765 50.6885C66.5765 50.5404 66.6136 50.3922 66.6876 50.2441C66.7617 50.096 66.858 49.9626 66.9765 49.8441C67.1098 49.7405 67.2505 49.6516 67.3987 49.5775C67.5468 49.5183 67.7023 49.4886 67.8653 49.4886C68.043 49.4886 68.2134 49.5109 68.3763 49.5553C68.5541 49.6145 68.7318 49.6812 68.9096 49.7553C69.1022 49.8293 69.2873 49.896 69.4651 49.9552C69.6577 50.0145 69.8576 50.0441 70.065 50.0441C70.4353 50.0441 70.7538 49.9182 71.0204 49.6664C71.3019 49.4146 71.5389 49.0813 71.7315 48.6665C71.924 48.2666 72.0796 47.8148 72.1981 47.3111C72.3166 46.8223 72.4055 46.3335 72.4647 45.8446C72.5388 45.3558 72.5906 44.8966 72.6203 44.467C72.6499 44.0374 72.6721 43.6893 72.6869 43.4227C72.1685 44.2078 71.65 44.8151 71.1315 45.2447C70.6279 45.6595 70.0058 45.8668 69.2651 45.8668C68.7022 45.8668 68.206 45.7483 67.7764 45.5113C67.3616 45.2743 67.0061 44.9633 66.7099 44.5781C66.4136 44.193 66.1692 43.756 65.9766 43.2672C65.784 42.7635 65.6359 42.2451 65.5322 41.7118C65.4433 41.1785 65.3841 40.6601 65.3545 40.1564C65.3248 39.638 65.3248 39.164 65.3545 38.7344C65.3693 38.4085 65.4063 37.9863 65.4656 37.4679C65.5396 36.9346 65.6507 36.4161 65.7989 35.9125C65.947 35.4089 66.1544 34.9867 66.421 34.646C66.6876 34.2905 67.0357 34.1275 67.4653 34.1572C67.7468 34.172 67.9764 34.2979 68.1541 34.5349C68.3319 34.7571 68.4726 35.0385 68.5763 35.3792C68.6948 35.7199 68.7763 36.0977 68.8207 36.5124C68.88 36.9124 68.917 37.3123 68.9318 37.7123C68.9466 38.1122 68.9466 38.4826 68.9318 38.8233C68.9318 39.1491 68.9318 39.401 68.9318 39.5787C68.9318 39.8305 68.9392 40.0824 68.954 40.3342C68.9688 40.586 69.0207 40.8156 69.1096 41.023C69.1984 41.2156 69.3318 41.3711 69.5095 41.4896C69.7021 41.6081 69.9687 41.6674 70.3094 41.6674C70.6946 41.6674 70.9982 41.5711 71.2204 41.3785C71.4574 41.1859 71.6278 40.9489 71.7315 40.6675C71.85 40.3712 71.924 40.0601 71.9537 39.7343C71.9833 39.3936 71.9981 39.0751 71.9981 38.7788C71.9981 38.5714 71.9981 38.3196 71.9981 38.0234C71.9981 37.7271 71.9981 37.416 71.9981 37.0901C72.0129 36.7642 72.0425 36.4458 72.087 36.1347C72.1462 35.8088 72.2277 35.5199 72.3314 35.2681C72.4499 35.0015 72.598 34.7867 72.7758 34.6238C72.9684 34.4608 73.2128 34.3793 73.509 34.3793C73.8794 34.3793 74.1978 34.5275 74.4645 34.8237C74.7311 35.1052 74.9533 35.4829 75.1311 35.9569C75.3236 36.4161 75.4718 36.9272 75.5755 37.4901C75.694 38.053 75.7828 38.6159 75.8421 39.1788C75.9013 39.7268 75.9384 40.2379 75.9532 40.7119C75.9828 41.1711 75.9976 41.534 75.9976 41.8007C75.9976 42.4228 75.9754 43.1338 75.931 43.9337C75.8865 44.7188 75.7977 45.5336 75.6643 46.3779C75.5458 47.2074 75.3607 48.0221 75.1088 48.822C74.857 49.6368 74.5237 50.3626 74.109 50.9996C73.709 51.6365 73.2128 52.1476 72.6203 52.5327C72.0277 52.9178 71.3167 53.1104 70.4872 53.1104Z" fill="#FE9200"/>
<path d="M27.6297 0.37845C30.7356 0.787364 33.7325 1.79319 36.4556 3.33995L24.3115 24.3739L12.1675 45.408C9.46644 43.8231 7.09689 41.7306 5.1898 39.2452C3.24808 36.7147 1.82379 33.8266 0.998256 30.7456C0.172721 27.6647 -0.0378908 24.4513 0.378444 21.2889C0.794779 18.1266 1.82991 15.0772 3.42473 12.3149C5.01955 9.55262 7.14283 7.13149 9.67334 5.18978C10.4118 4.62313 11.1807 4.10054 11.976 3.62405C13.906 2.46776 15.9911 1.58286 18.173 0.998244C21.2539 0.172716 24.4673 -0.0378908 27.6297 0.37845Z" fill="#FFC746" stroke="#FE9200" stroke-width="0.341292"/>
<path d="M12.2305 45.642L24.4601 24.4596M36.6898 3.27734L24.4601 24.4596M24.4601 24.4596L12.2305 3.35645" stroke="#FE9200" stroke-width="3.64045" stroke-linecap="round" stroke-linejoin="round"/>
<circle cx="11.2143" cy="17.7924" r="3.08147" fill="#F63204"/>
<circle cx="11.9447" cy="29.7709" r="3.08147" fill="#F63204"/>
<circle cx="24.2416" cy="8.09123" r="3.08147" fill="#F63204"/>
<path d="M6.76262 25.5127C5.69869 25.1506 3.76649 23.7992 4.54908 21.2912C5.41193 21.6208 7.06263 22.9266 6.76262 25.5127Z" fill="#17B404"/>
<path d="M14.4974 13.1843C13.4949 13.6923 11.1781 14.1303 9.93072 11.818C10.7694 11.4311 12.8569 11.1626 14.4974 13.1843Z" fill="#17B404"/>
<path d="M20.5052 25.8971C19.5027 26.4052 17.1859 26.8432 15.9385 24.5309C16.7772 24.144 18.8647 23.8755 20.5052 25.8971Z" fill="#17B404"/>
<path d="M22.3309 3.95887C21.5703 4.78627 19.5543 6.00913 17.5752 4.28127C18.2248 3.62471 20.0855 2.64105 22.3309 3.95887Z" fill="#17B404"/>
<path d="M26.7349 4.04026C27.8435 3.85563 30.1852 4.1313 30.6831 6.71097C29.767 6.8291 27.6949 6.46034 26.7349 4.04026Z" fill="#17B404"/>
<path d="M23.7547 15.6862C23.8811 14.5695 24.7883 12.3931 27.4056 12.6216C27.268 13.535 26.3452 15.4266 23.7547 15.6862Z" fill="#17B404"/>
<path d="M13.5883 35.1611C13.401 36.2692 12.376 38.3927 9.77513 38.0212C9.96249 37.1168 10.9874 35.2785 13.5883 35.1611Z" fill="#17B404"/>
</svg>
