<svg width="30" height="40" viewBox="0 0 30 40" fill="none" xmlns="http://www.w3.org/2000/svg">
<g clip-path="url(#clip0_772_142)">
<path d="M0.213006 4.34869L15.0148 39.8417L29.8165 4.34869L0.213006 4.34869Z" fill="#FFD54F"/>
<path d="M14.3425 26.3537C13.9006 26.8197 13.5501 27.3729 13.3109 27.9819C13.0717 28.5908 12.9485 29.2435 12.9484 29.9027C12.9483 30.5618 13.0712 31.2146 13.3102 31.8236C13.5491 32.4327 13.8995 32.9861 14.3411 33.4523C15.1129 34.2665 16.0864 34.7229 17.0923 34.8599L20.753 26.0811C18.8846 24.4221 16.1012 24.4981 14.3425 26.3537Z" fill="#FF3D00"/>
<path d="M5.93242 16.0607C6.7354 16.9079 7.82447 17.3839 8.96005 17.3839C10.0956 17.3839 11.1847 16.9079 11.9877 16.0607C12.7907 15.2135 13.2418 14.0645 13.2418 12.8663C13.2418 11.6682 12.7907 10.5192 11.9877 9.67196C11.1847 8.82476 10.0956 8.34881 8.96005 8.34881C7.82447 8.34881 6.7354 8.82476 5.93242 9.67196C5.12944 10.5192 4.67833 11.6682 4.67833 12.8663C4.67833 14.0645 5.12944 15.2135 5.93242 16.0607Z" fill="#FF3D00"/>
<path d="M15.0147 8.60795C13.9012 9.78277 13.9012 11.6923 15.0161 12.8685C16.1289 14.0426 17.9381 14.0419 19.0516 12.8671C20.1651 11.6923 20.1657 9.78348 19.0529 8.60937C18.5173 8.04468 17.7912 7.72736 17.0341 7.72709C16.2769 7.72683 15.5506 8.04364 15.0147 8.60795ZM18.0424 11.8023C17.9112 11.9481 17.7537 12.0648 17.5791 12.1453C17.4046 12.2259 17.2165 12.2688 17.026 12.2714C16.8355 12.2741 16.6464 12.2365 16.4699 12.1608C16.2934 12.0852 16.133 11.973 15.9982 11.8309C15.8635 11.6888 15.757 11.5197 15.6852 11.3335C15.6133 11.1473 15.5776 10.9478 15.58 10.7468C15.5824 10.5458 15.6229 10.3473 15.6991 10.1631C15.7754 9.97889 15.8858 9.81263 16.0239 9.67416C16.2937 9.40368 16.6529 9.25508 17.025 9.26002C17.3972 9.26495 17.7527 9.42304 18.016 9.70059C18.2792 9.97814 18.4293 10.3532 18.4342 10.7458C18.4391 11.1384 18.2985 11.5175 18.0424 11.8023ZM10.3051 20.6756C9.19157 21.8504 9.19157 23.7599 10.3064 24.9362C11.4192 26.1103 13.2284 26.1096 14.3419 24.9347C15.4554 23.7599 15.4561 21.8511 14.3433 20.677C13.8077 20.1123 13.0816 19.795 12.3244 19.7947C11.5673 19.7945 10.841 20.1113 10.3051 20.6756ZM13.3327 23.87C13.2015 24.0158 13.044 24.1324 12.8695 24.213C12.6949 24.2935 12.5069 24.3364 12.3163 24.3391C12.1258 24.3417 11.9367 24.3041 11.7602 24.2285C11.5837 24.1528 11.4233 24.0406 11.2886 23.8985C11.1538 23.7564 11.0474 23.5873 10.9755 23.4011C10.9037 23.2149 10.8679 23.0154 10.8703 22.8144C10.8727 22.6134 10.9132 22.415 10.9895 22.2307C11.0657 22.0465 11.1762 21.8803 11.3143 21.7418C11.584 21.4713 11.9433 21.3227 12.3154 21.3276C12.6875 21.3326 13.0431 21.4907 13.3063 21.7682C13.5696 22.0458 13.7196 22.4208 13.7246 22.8134C13.7295 23.206 13.5889 23.5851 13.3327 23.87Z" fill="#3E2723"/>
<path d="M24.6992 16.168C24.2397 15.9477 23.7162 15.9291 23.2436 16.1161C22.7711 16.3031 22.3883 16.6806 22.1796 17.1653C21.7449 18.1748 20.1988 23.9346 21.1549 24.3939C21.2396 24.435 21.3466 24.4187 21.4623 24.3804L24.8479 16.261C24.7988 16.2305 24.7531 16.1935 24.6992 16.168Z" fill="#8D6E63"/>
<path d="M22.7299 20.7387C21.3802 20.0047 20.5769 18.903 20.5769 18.903C20.5702 18.8491 20.5365 18.8121 20.4988 18.7781C20.4065 18.6003 20.2637 18.4575 20.0905 18.3699C19.947 18.3014 19.7896 18.2715 19.6324 18.283C19.4753 18.2945 19.3233 18.3469 19.1902 18.4357C19.057 18.5244 18.9468 18.6466 18.8694 18.7914C18.792 18.9361 18.7499 19.0989 18.7469 19.265C18.5298 20.2816 18.6507 21.346 19.0893 22.2797C19.5278 23.2134 20.2574 23.9596 21.1555 24.3931C21.2403 24.4342 21.3284 24.4548 21.4152 24.4896L22.9391 20.8374C22.8705 20.8033 22.8005 20.7763 22.7299 20.7387Z" fill="#8D6E63"/>
<path d="M19.452 16.1289C19.452 16.1289 15.477 12.696 13.0987 17.944C17.2553 21.4933 19.452 16.1289 19.452 16.1289ZM22.1432 8.18554C22.1432 8.18554 18.8882 12.3794 23.8636 14.8888C27.227 10.5025 22.1432 8.18554 22.1432 8.18554Z" fill="#689F38"/>
<path d="M29.1745 3.87308C27.0848 2.98433 21.3579 -0.00560161 15.022 -0.00489098C8.85575 -0.00701987 3.08306 2.50589 0.782058 3.89722C0.0655181 4.33236 -0.0905737 4.43174 0.249867 5.25802C0.524372 5.92813 1.56655 8.10953 2.04155 9.14451C2.10782 9.29145 2.1864 9.43185 2.27636 9.56403C6.29524 7.68792 10.6418 6.7202 15.0365 6.72314C19.4312 6.72607 23.7766 7.69959 27.7933 9.58107C27.806 9.55906 27.8242 9.54699 27.8363 9.52144C28.1552 8.8712 29.371 6.21278 29.7013 5.51498C30.029 4.81435 30.0142 4.22943 29.1745 3.87308Z" fill="#FF9800"/>
</g>
<defs>
<clipPath id="clip0_772_142">
<rect width="30" height="40" fill="white"/>
</clipPath>
</defs>
</svg>
