<svg width="36" height="36" viewBox="0 0 36 36" fill="none" xmlns="http://www.w3.org/2000/svg">
<g clip-path="url(#clip0_772_142)">
<path d="M14.563 0.798109L-0.0679755 36.3619L35.4958 21.731L14.563 0.798109Z" fill="#FFD54F"/>
<path d="M8.99418 26.3491C8.35222 26.3661 7.71314 26.5095 7.11341 26.7709C6.51369 27.0324 5.96507 27.4068 5.49888 27.8728C5.03269 28.3388 4.65806 28.8873 4.39638 29.487C4.1347 30.0866 3.99109 30.7256 3.97376 31.3676C3.94371 32.489 4.30936 33.5002 4.92373 34.3083L13.7198 30.6892C13.5717 28.195 11.5499 26.2806 8.99418 26.3491Z" fill="#FF3D00"/>
<path d="M10.3257 13.1241C10.2944 14.291 10.728 15.3976 11.531 16.2006C12.3339 17.0036 13.4406 17.4371 14.6074 17.4058C15.7743 17.3746 16.9058 16.881 17.753 16.0338C18.6002 15.1866 19.0937 14.0552 19.1249 12.8883C19.1562 11.7215 18.7227 10.6148 17.9197 9.81184C17.1167 9.00886 16.0101 8.57532 14.8432 8.60658C13.6764 8.63785 12.5449 9.13137 11.6977 9.97858C10.8505 10.8258 10.357 11.9573 10.3257 13.1241Z" fill="#FF3D00"/>
<path d="M22.0177 14.2762C20.3996 14.3195 19.0494 15.6698 19.006 17.2898C18.9626 18.9069 20.2424 20.1857 21.8605 20.1423C23.4786 20.099 24.8288 18.7497 24.8721 17.1326C24.8927 16.3546 24.6037 15.6168 24.0685 15.0812C23.5333 14.5457 22.7957 14.2561 22.0177 14.2762ZM21.8998 18.6758C21.704 18.6862 21.5101 18.6573 21.3297 18.5908C21.1493 18.5244 20.986 18.4217 20.8494 18.2889C20.7128 18.156 20.6057 17.9957 20.5344 17.8174C20.4631 17.6391 20.429 17.4464 20.4342 17.2506C20.4394 17.0548 20.4837 16.86 20.5646 16.6775C20.6454 16.4951 20.7612 16.3287 20.905 16.1883C21.0488 16.0478 21.2178 15.9361 21.402 15.8598C21.5862 15.7834 21.7818 15.744 21.9774 15.7437C22.3594 15.7432 22.7185 15.8922 22.9781 16.1588C23.2378 16.4254 23.3774 16.7886 23.3673 17.171C23.3572 17.5534 23.1981 17.9247 22.924 18.2058C22.6498 18.4869 22.2823 18.6556 21.8998 18.6758ZM10.1544 19.4791C8.53629 19.5224 7.18605 20.8727 7.14264 22.4927C7.0993 24.1098 8.37909 25.3886 9.99717 25.3452C11.6153 25.3019 12.9655 23.9526 13.0088 22.3355C13.0294 21.5575 12.7403 20.8197 12.2051 20.2841C11.6699 19.7485 10.9324 19.459 10.1544 19.4791ZM10.0365 23.8787C9.84063 23.889 9.64679 23.8601 9.46639 23.7937C9.28598 23.7272 9.12267 23.6246 8.98608 23.4917C8.84948 23.3589 8.74237 23.1986 8.67106 23.0203C8.59974 22.842 8.56567 22.6492 8.57086 22.4535C8.57604 22.2577 8.62037 22.0628 8.70123 21.8804C8.78209 21.6979 8.89784 21.5316 9.04167 21.3911C9.1855 21.2507 9.35448 21.139 9.53866 21.0627C9.72284 20.9863 9.91849 20.9469 10.1141 20.9466C10.4961 20.9461 10.8552 21.095 11.1148 21.3617C11.3744 21.6283 11.5141 21.9915 11.504 22.3739C11.4938 22.7563 11.3348 23.1276 11.0606 23.4087C10.7865 23.6898 10.419 23.8584 10.0365 23.8787Z" fill="#3E2723"/>
<path d="M23.5198 26.4699C23.3506 25.9892 22.9936 25.6058 22.5272 25.4039C22.0608 25.202 21.5233 25.1983 21.0329 25.3934C20.0118 25.7999 14.8457 28.7794 15.197 29.7802C15.2278 29.8692 15.315 29.9333 15.4239 29.9881L23.5591 26.6408C23.546 26.5844 23.5398 26.526 23.5198 26.4699Z" fill="#8D6E63"/>
<path d="M18.8952 28.3094C18.4598 26.836 18.6708 25.489 18.6708 25.489C18.7042 25.4461 18.7065 25.3962 18.704 25.3454C18.7644 25.1545 18.7643 24.9525 18.7038 24.768C18.6508 24.6181 18.5606 24.4857 18.4414 24.3827C18.3222 24.2797 18.1776 24.2094 18.0207 24.1779C17.8638 24.1465 17.6994 24.155 17.5423 24.2026C17.3853 24.2503 17.2404 24.3356 17.1208 24.4509C16.2485 25.0163 15.5813 25.8544 15.2312 26.8248C14.8811 27.7951 14.8693 28.8386 15.1979 29.7802C15.2287 29.8692 15.2765 29.9461 15.3133 30.0321L18.9733 28.5271C18.9489 28.4545 18.9185 28.3859 18.8952 28.3094Z" fill="#8D6E63"/>
<path d="M19.837 22.7319C19.837 22.7319 19.4537 17.4938 14.0611 19.5229C14.4905 24.9718 19.837 22.7319 19.837 22.7319ZM27.3568 19.0181C27.3568 19.0181 22.0896 19.6819 23.8334 24.9745C29.3132 24.2512 27.3568 19.0181 27.3568 19.0181Z" fill="#689F38"/>
<path d="M35.3783 20.9407C34.5291 18.8346 32.5937 12.6709 28.1131 8.19126C23.7544 3.82954 17.8956 1.52452 15.2847 0.881286C14.4703 0.682309 14.2897 0.642209 13.9462 1.4672C13.6664 2.13515 12.8609 4.41456 12.4649 5.48228C12.4079 5.63304 12.3642 5.78789 12.3343 5.94496C16.5027 7.46012 20.2605 9.84936 23.3659 12.9589C26.4713 16.0685 28.8557 19.8296 30.3654 24.0002C30.39 23.9937 30.4114 23.998 30.438 23.9885C31.1233 23.7542 33.8628 22.7341 34.5898 22.4742C35.3169 22.2105 35.72 21.7864 35.3783 20.9407Z" fill="#FF9800"/>
</g>
<defs>
<clipPath id="clip0_772_142">
<rect width="36" height="36" fill="white"/>
</clipPath>
</defs>
</svg>
