<svg width="15" height="15" viewBox="0 0 15 15" fill="none" xmlns="http://www.w3.org/2000/svg">
<circle cx="7.5" cy="7.5" r="7" stroke="black"/>
<path d="M7.98985 7.48349L10.4198 5.05349C10.4745 4.98972 10.503 4.90769 10.4998 4.8238C10.4965 4.73991 10.4617 4.66033 10.4024 4.60096C10.343 4.5416 10.2634 4.50682 10.1795 4.50358C10.0956 4.50034 10.0136 4.52888 9.94985 4.58349L7.51985 7.01349L5.08985 4.58015C5.02608 4.52554 4.94406 4.49701 4.86016 4.50025C4.77627 4.50349 4.69669 4.53827 4.63733 4.59763C4.57796 4.657 4.54318 4.73658 4.53994 4.82047C4.5367 4.90436 4.56524 4.98638 4.61985 5.05015L7.04985 7.48349L4.61651 9.91349C4.58162 9.94337 4.55328 9.98014 4.53327 10.0215C4.51327 10.0629 4.50202 10.1079 4.50025 10.1538C4.49848 10.1997 4.50621 10.2455 4.52297 10.2883C4.53973 10.331 4.56515 10.3699 4.59763 10.4024C4.63012 10.4349 4.66897 10.4603 4.71174 10.477C4.75452 10.4938 4.80029 10.5015 4.8462 10.4998C4.89211 10.498 4.93715 10.4867 4.9785 10.4667C5.01986 10.4467 5.05663 10.4184 5.08651 10.3835L7.51985 7.95349L9.94985 10.3835C10.0136 10.4381 10.0956 10.4666 10.1795 10.4634C10.2634 10.4601 10.343 10.4254 10.4024 10.366C10.4617 10.3066 10.4965 10.2271 10.4998 10.1432C10.503 10.0593 10.4745 9.97725 10.4198 9.91349L7.98985 7.48349Z" fill="black"/>
</svg>
