<svg width="39" height="48" viewBox="0 0 39 48" fill="none" xmlns="http://www.w3.org/2000/svg">
<path d="M12.1675 45.408C9.46644 43.8231 7.09689 41.7306 5.1898 39.2452C3.24808 36.7147 1.82379 33.8266 0.998256 30.7456C0.172721 27.6647 -0.0378908 24.4513 0.378444 21.2889C0.794779 18.1266 1.82991 15.0772 3.42473 12.3149C5.01955 9.55262 7.14283 7.13149 9.67334 5.18978C10.3665 4.65789 11.0865 4.16483 11.83 3.71227L24.2613 24.4609L12.1675 45.408ZM24.4565 24.1227L12.1227 3.53686C14.0115 2.4232 16.0463 1.56808 18.173 0.998244C21.2539 0.172716 24.4673 -0.0378908 27.6297 0.37845C30.7356 0.787364 33.7325 1.79319 36.4556 3.33995L24.4565 24.1227Z" fill="#FFC746" stroke="#FE9200" stroke-width="0.341292"/>
<path d="M12.2305 45.642L24.4601 24.4596M36.6898 3.27734L24.4601 24.4596M24.4601 24.4596L12.2305 3.35645" stroke="#FE9200" stroke-width="3.64045" stroke-linecap="round" stroke-linejoin="round"/>
<circle cx="11.2143" cy="17.7924" r="3.08147" fill="#F63204"/>
<circle cx="11.9447" cy="29.7709" r="3.08147" fill="#F63204"/>
<circle cx="24.2416" cy="8.09123" r="3.08147" fill="#F63204"/>
<path d="M6.76262 25.5127C5.69869 25.1506 3.76649 23.7992 4.54908 21.2912C5.41193 21.6208 7.06263 22.9266 6.76262 25.5127Z" fill="#17B404"/>
<path d="M14.4974 13.1843C13.4949 13.6923 11.1781 14.1303 9.93072 11.818C10.7694 11.4311 12.8569 11.1626 14.4974 13.1843Z" fill="#17B404"/>
<path d="M20.5052 25.8971C19.5027 26.4052 17.1859 26.8432 15.9385 24.5309C16.7772 24.144 18.8647 23.8755 20.5052 25.8971Z" fill="#17B404"/>
<path d="M22.3309 3.95887C21.5703 4.78627 19.5543 6.00913 17.5752 4.28127C18.2248 3.62471 20.0855 2.64105 22.3309 3.95887Z" fill="#17B404"/>
<path d="M26.7349 4.04026C27.8435 3.85563 30.1852 4.1313 30.6831 6.71097C29.767 6.8291 27.6949 6.46034 26.7349 4.04026Z" fill="#17B404"/>
<path d="M23.7547 15.6862C23.8811 14.5695 24.7883 12.3931 27.4056 12.6216C27.268 13.535 26.3452 15.4266 23.7547 15.6862Z" fill="#17B404"/>
<path d="M13.5883 35.1611C13.401 36.2692 12.376 38.3927 9.77513 38.0212C9.96249 37.1168 10.9874 35.2785 13.5883 35.1611Z" fill="#17B404"/>
</svg>
