<svg width="21" height="22" viewBox="0 0 21 22" fill="none" xmlns="http://www.w3.org/2000/svg">
<path d="M11.1152 10.2201L11.1152 1.62876C11.099 1.41949 11.0045 1.22405 10.8504 1.08148C10.6964 0.938903 10.4943 0.859703 10.2844 0.859703C10.0745 0.859703 9.87233 0.938903 9.7183 1.08148C9.56427 1.22405 9.46971 1.41949 9.45352 1.62876L9.45352 10.2201L0.856279 10.2142C0.647018 10.2304 0.451573 10.325 0.309 10.479C0.166426 10.633 0.0872262 10.8352 0.0872262 11.0451C0.0872262 11.2549 0.166426 11.4571 0.308999 11.6111C0.451572 11.7652 0.647018 11.8597 0.856279 11.8759L9.45352 11.8818L9.44763 20.479C9.43877 20.5936 9.45368 20.7087 9.49141 20.8171C9.52915 20.9256 9.5889 21.0251 9.66692 21.1094C9.74493 21.1937 9.83953 21.2609 9.94477 21.3069C10.05 21.3529 10.1636 21.3767 10.2785 21.3767C10.3933 21.3767 10.5069 21.3529 10.6122 21.3069C10.7174 21.2609 10.812 21.1937 10.89 21.1094C10.9681 21.0251 11.0278 20.9256 11.0655 20.8171C11.1033 20.7087 11.1182 20.5936 11.1093 20.479L11.1152 11.8818L19.7066 11.8818C19.9158 11.8656 20.1113 11.7711 20.2538 11.617C20.3964 11.463 20.4756 11.2608 20.4756 11.051C20.4756 10.8411 20.3964 10.6389 20.2538 10.4849C20.1113 10.3309 19.9158 10.2363 19.7066 10.2201L11.1152 10.2201Z" fill="#17B404"/>
</svg>
