<svg width="22" height="22" viewBox="0 0 22 22" fill="none" xmlns="http://www.w3.org/2000/svg">
<path d="M11.2656 5.60163L1 15.8672V21H6.1328L16.3984 10.7344M11.2656 5.60163L14.9466 1.92056L14.9489 1.91838C15.4555 1.41167 15.7093 1.15787 16.0019 1.06281C16.2597 0.979065 16.5372 0.979065 16.795 1.06281C17.0874 1.1578 17.3409 1.41131 17.8469 1.9173L20.0794 4.14981C20.5875 4.65799 20.8417 4.91219 20.937 5.20518C21.0207 5.4629 21.0206 5.74051 20.937 5.99824C20.8419 6.29101 20.588 6.54483 20.0805 7.05227L20.0794 7.05336L16.3984 10.7344M11.2656 5.60163L16.3984 10.7344" stroke="#FE9200" stroke-width="2" stroke-linecap="round" stroke-linejoin="round"/>
</svg>
